<?xml version="1.0" standalone="no"?><!DOCTYPE svg PUBLIC "-//W3C//DTD SVG 1.1//EN" "http://www.w3.org/Graphics/SVG/1.1/DTD/svg11.dtd"><svg t="1710849643553" class="icon" viewBox="0 0 1024 1024" version="1.1" xmlns="http://www.w3.org/2000/svg" p-id="9871" width="64" height="64" xmlns:xlink="http://www.w3.org/1999/xlink"><path d="M730.736577 1023.999032a292.488165 292.488165 0 0 0 293.262455-293.262455V293.262552A293.068882 293.068882 0 0 0 730.736577 0.000097H293.262552A293.068882 293.068882 0 0 0 0.000097 293.262552v437.474025a293.068882 293.068882 0 0 0 293.262455 293.262455z" fill="#3395FF" p-id="9872"></path><path d="M628.143111 394.888155a116.143547 116.143547 0 1 0-116.143547 116.143547 116.143547 116.143547 0 0 0 116.143547-116.143547z m91.946974 302.941084v-37.746653a116.917837 116.917837 0 0 0-117.111409-117.111409H421.020453a116.917837 116.917837 0 0 0-117.111409 117.111409v37.746653z" fill="#FFFFFF" p-id="9873"></path></svg>