<?xml version="1.0" standalone="no"?><!DOCTYPE svg PUBLIC "-//W3C//DTD SVG 1.1//EN" "http://www.w3.org/Graphics/SVG/1.1/DTD/svg11.dtd"><svg t="1710849636263" class="icon" viewBox="0 0 1024 1024" version="1.1" xmlns="http://www.w3.org/2000/svg" p-id="9624" width="64" height="64" xmlns:xlink="http://www.w3.org/1999/xlink"><path d="M855.552 952.32H168.448c-53.76 0-96.768-43.52-96.768-96.768V168.448C71.68 115.2 115.2 71.68 168.448 71.68H855.04c53.76 0 96.768 43.52 96.768 96.768V855.04c0.512 53.76-43.008 97.28-96.256 97.28z" fill="#FF5267" p-id="9625"></path><path d="M620.544 323.584c-35.328 0-63.488 12.8-88.576 37.376l-14.336 17.92-14.336-16.384C478.208 337.92 450.048 324.096 414.72 324.096S346.112 337.92 321.024 362.496s-38.912 57.856-38.912 92.672 13.824 67.584 38.912 92.672L496.64 722.432c5.632 5.632 12.8 8.704 20.992 8.704 7.68 0 15.36-3.072 20.992-8.704l175.616-175.104c25.088-24.576 38.912-57.344 38.912-92.672s-13.824-68.096-38.912-92.672c-25.088-24.576-58.368-38.4-93.696-38.4z" fill="#FFFFFF" p-id="9626"></path></svg>