<?xml version="1.0" standalone="no"?><!DOCTYPE svg PUBLIC "-//W3C//DTD SVG 1.1//EN" "http://www.w3.org/Graphics/SVG/1.1/DTD/svg11.dtd"><svg t="1721721372066" class="icon" viewBox="0 0 1246 1024" version="1.1" xmlns="http://www.w3.org/2000/svg" p-id="4791" xmlns:xlink="http://www.w3.org/1999/xlink" width="243.359375" height="200"><path d="M1246.335858 851.808477c0-40.980527-35.379611-74.952577-81.961053-81.594502-1.216953-31.15693-31.699427-56.214433-69.175716-56.214433-38.12142 0-69.175716 26.083849-69.175716 58.311111a56.361054 56.361054 0 0 0 30.643757 48.164948 2.932417 2.932417 0 0 0-0.35189 0.865063c-111.549141-23.298053-269.533104-37.828179-445.008935-37.828178a2675.097365 2675.097365 0 0 0-332.829324 19.471248c-3.680183-42.842612-46.06827-76.87331-98.074685-76.87331-50.085682 0-91.242153 31.50882-97.561512 72.137457a59.14685 59.14685 0 0 0-42.036197 53.58992 42.314777 42.314777 0 0 0 0.865063 8.225429c-26.787629 13.621077-41.669645 28.312486-41.669645 43.736999 0 66.360596 273.72646 120.12646 611.408935 120.126461 334.515464 0 606.321191-52.88614 611.232989-118.367011a75.451088 75.451088 0 0 0 23.649943-53.751202" fill="#F0EFEF" p-id="4792"></path><path d="M1131.810314 883.859794c0 31.699427-222.262543 57.431386-496.5315 57.431386S138.761975 915.559221 138.761975 883.859794s222.262543-57.431386 496.531501-57.431386 496.531501 25.731959 496.5315 57.431386" fill="#DFDFDF" p-id="4793"></path><path d="M103.015813 225.664147l-4.721192-5.776862c3.900115-3.152348 7.888202-6.128751 12.09622-9.090492l4.208019 6.128751c-4.032073 2.932417-7.888202 5.776861-11.553723 8.797251z m17.682474-12.990607l-4.208019-6.128752q12.609393-8.401375 25.746621-15.761741l3.680184 6.495304c-9.2811 5.073081-17.682474 10.380756-25.218786 15.409851z m833.68614 454.524627c-7.536312 0-15.057961-0.175945-22.0811-0.70378l0.513173-7.331042a276.688202 276.688202 0 0 0 29.602749 0.513173l0.175945 7.331042c-2.800458 0.175945-5.615578 0.175945-8.240092 0.175945z m15.761741-0.35189l-0.35189-7.331042q14.83803-0.615808 29.602749-2.272623l0.865063 7.331042c-10.160825 1.05567-20.145704 1.75945-30.130584 2.272623z m-45.525773-1.05567a250.120504 250.120504 0 0 1-30.130585-4.559908l1.568843-7.184422a230.971821 230.971821 0 0 0 29.074914 4.398626z m-37.476289-6.304696a148.702864 148.702864 0 0 1-28.723024-10.68866l3.328293-6.641925a138.673998 138.673998 0 0 0 27.271478 10.160825zM851.764495 645.13173a95.670103 95.670103 0 0 1-23.825887-19.793815l5.615578-4.911798a88.793585 88.793585 0 0 0 22.0811 18.180985z m-28.723024-25.966552a84.74685 84.74685 0 0 1-12.785338-28.371134l7.184422-1.759451a82.63551 82.63551 0 0 0 11.553723 25.966552z m-14.354181-36.039405a98.235968 98.235968 0 0 1-1.466208-18.899427c0-3.900115 0.161283-7.697595 0.513173-11.905613l7.331042 0.70378a125.683391 125.683391 0 0 0-0.513173 11.201833 114.84811 114.84811 0 0 0 1.466209 17.682474z m7.331043-37.285681l-7.331043-0.850401a201.545017 201.545017 0 0 1 6.304697-29.778694l7.184421 2.096678a176.208935 176.208935 0 0 0-6.128751 28.561741z m8.049484-35.716839l-7.184421-2.272623a284.840321 284.840321 0 0 1 10.512714-28.371134l6.832532 2.800458q-5.600916 13.606415-10.131501 27.740665z m13.195876-34.67583l-6.832531-2.932417c3.900115-8.57732 8.240092-17.873081 12.990607-27.139519l6.700573 3.152348q-6.715235 13.195876-12.785338 26.787629z m16.289577-33.268271l-6.495304-3.504238q6.832532-12.87331 14.662085-26.274456l6.304696 3.900115q-7.59496 12.8-14.530126 25.966552z m18.386254-32.403207l-6.304697-3.900115c5.190378-8.57732 10.512715-16.978694 15.937687-25.380068l6.128751 4.032073q-8.137457 12.609393-15.761741 25.218786z m19.955097-31.347537l-6.128751-4.032074c5.190378-8.049485 11.04055-16.289576 16.993356-24.925544l6.128752 4.208019a478.130584 478.130584 0 0 0-16.993357 24.676288z m21.157389-30.790378l-6.128752-4.398626c5.615578-7.888202 11.553723-15.937686 17.682474-24.163115l5.967469 4.398625q-8.92921 11.949599-17.521191 24.163116z m21.890492-29.939977l-5.967468-4.559909c5.776861-7.697595 11.905613-15.585796 18.180985-23.811225l5.776861 4.559908c-5.967468 7.888202-11.905613 15.761741-18.034364 23.811226z m22.946163-29.588087l-5.776862-4.559909c6.128751-7.888202 12.433448-15.585796 18.738145-23.298052l5.776861 4.721191c-6.304696 7.536312-12.609393 15.233906-18.738144 23.107445z m23.459335-29.074914l-5.776861-4.721192a1254.927835 1254.927835 0 0 1 19.265979-22.946162l5.615579 4.721191c-6.480641 7.404353-12.770676 15.101947-19.075372 22.814204z m24.001833-28.561742l-5.615578-4.721191 4.398625-5.073081q7.624284-8.679954 14.662085-17.873082l5.776861 4.559909q-7.331042 9.134479-14.882016 18.034364z m23.825888-29.074914l-5.967469-4.559908c6.304696-8.401375 12.257503-16.465521 17.169302-24.163116l6.128751 4.032074q-8.108133 12.712027-17.345246 24.676288z m-876.792669-7.888201l-3.504238-6.495304q13.195876-7.24307 26.787629-13.826346l3.328293 6.641925c-9.090493 4.398625-17.873081 8.92921-26.626346 13.665063z m33.26827-16.978694l-3.152348-6.641925q13.665063-6.568614 27.271478-12.609393l2.932417 6.832532c-9.2811 4.032073-18.180985 8.049485-27.139519 12.433448z m865.063001-6.128752l-6.304696-4.032073a240.722108 240.722108 0 0 0 14.178236-25.731959l6.656586 3.152348a213.040092 213.040092 0 0 1-14.530126 26.611684z m-831.178923-9.457045l-3.079038-6.773883c9.090493-4.032073 18.386254-7.888202 27.682016-11.729668l2.800459 6.832532c-9.090493 4.032073-18.386254 7.888202-27.491409 11.729668z m34.499886-14.354181l-2.800459-6.832531c9.2811-3.680183 18.576861-7.331042 28.019244-10.849943l2.595189 6.993815a880.751432 880.751432 0 0 0-27.857961 10.688659z m814.552119-9.764948l-6.832532-2.932417a139.011226 139.011226 0 0 0 8.797251-27.667354l7.331043 1.466209a145.491867 145.491867 0 0 1-9.2811 29.236197z m-779.74433-3.900115l-2.521879-6.96449c9.457045-3.504238 18.738144-6.832532 28.195189-10.380756l2.448568 6.993815c-9.2811 3.504238-18.738144 6.832532-28.019243 10.380756z m35.189003-12.609392l-2.448568-6.993815c9.457045-3.328293 18.914089-6.495304 28.371134-9.63299l2.272623 6.993815c-9.457045 3.152348-18.914089 6.304696-28.195189 9.63299z m35.379611-12.081558l-2.272623-6.993815q14.222222-4.721191 28.576403-9.090492l2.272623 6.993814c-9.545017 2.976403-19.002062 6.128751-28.488431 9.090493z m719.497823-8.401375l-7.331042-0.70378a67.680183 67.680183 0 0 0 0.513173-8.401374 64.762428 64.762428 0 0 0-2.932417-19.603208l6.993815-2.272623a68.985109 68.985109 0 0 1 3.328293 21.890493 83.984422 83.984422 0 0 1-0.513173 9.090492z m-684.015578-2.74181l-2.272623-6.993814c9.63299-2.932417 19.06071-5.776861 28.723024-8.57732l2.096678 7.184422c-9.457045 2.595189-18.914089 5.424971-28.576403 8.401374z m35.907446-10.688659l-2.111341-7.184422c9.63299-2.800458 19.265979-5.615578 28.898969-8.22543l1.920734 7.184422c-9.63299 2.595189-19.265979 5.424971-28.723024 8.22543z m35.907445-10.380756l-1.920733-7.184422c9.63299-2.595189 19.265979-5.190378 28.898969-7.697595l1.920733 7.199084c-9.63299 2.595189-19.265979 5.073081-28.898969 7.697595z m36.083391-9.457045l-1.994044-7.111111c9.63299-2.448568 19.485911-4.911798 29.074914-7.331043l1.759451 7.184422-28.89897 7.331042z m563.639862-2.096678a64.117297 64.117297 0 0 0-17.594501-21.831845l4.721191-5.776861a71.331042 71.331042 0 0 1 19.485911 24.515006z m-527.395189-6.935166l-1.75945-7.184422c9.808935-2.272623 19.485911-4.559908 29.250859-6.832531l1.568843 7.184421c-9.63299 2.272623-19.485911 4.559908-29.074914 6.832532z m36.435281-8.401375l-1.568843-7.184421q14.662085-3.416266 29.426804-6.304697l1.568843 7.184422q-14.618099 2.903093-29.338832 6.304696z m36.655212-7.888202l-1.568843-7.331042a1742.295533 1742.295533 0 0 1 29.426804-5.952806l1.466208 7.331042c-9.63299 1.920733-19.485911 3.900115-29.250859 5.952806z m431.182589-2.932417a128.029324 128.029324 0 0 0-25.746621-13.313172l2.639175-6.861856a132.794502 132.794502 0 0 1 27.271478 14.016953z m-394.410081-4.398625l-1.466208-7.331042a692.622222 692.622222 0 0 1 29.602749-5.190378l1.216953 7.331042c-9.98488 1.568843-19.793814 3.504238-29.426804 5.190378z m36.772509-6.495303l-1.216953-7.331043c9.808935-1.568843 19.793814-3.328293 29.602749-4.721191l1.05567 7.331042q-14.662085 2.096678-29.382818 4.691867z m324.897136-4.911799a228.215349 228.215349 0 0 0-28.576403-7.536311l1.466209-7.331043a242.202978 242.202978 0 0 1 29.426804 7.697595z m-288.007331-1.070332l-1.05567-7.331042 29.764032-4.164033 0.865063 7.331043c-9.808935 1.466208-19.617869 2.800458-29.602749 4.208018z m37.124399-5.073081l-0.865063-7.331043a1187.65819 1187.65819 0 0 1 29.720046-3.298969l0.70378 7.331043c-9.808935 1.05567-19.617869 2.096678-29.602749 3.328293zM974.969994 13.811684q-14.662085-2.565865-29.426805-3.900115l0.703781-7.331042q15.013975 1.348912 29.969301 4.017411z m-178.115006-1.466209l-0.70378-7.331042q14.955326-1.466208 29.954639-2.448568l0.513173 7.331042c-9.808935 0.70378-19.793814 1.466208-29.778694 2.448568z m37.080412-3.035051l-0.513173-7.331043q14.955326-1.084994 29.954639-1.466208l0.35189 7.331042a529.30126 529.30126 0 0 0-29.778694 1.466209z m104.203437-0.175945Q923.227496 8.152119 908.316156 7.638946l0.175945-7.331042c10.512715 0.35189 20.526919 0.70378 30.130584 1.568843zM871.20642 7.624284l-0.175945-7.331042q15.057961-0.483849 30.130584-0.175945l-0.175945 7.331042h-11.39244c-5.967468 0-12.09622 0-18.386254 0.175945z m136.958533 655.717755l-1.05567-7.331042c9.090493-1.216953 14.368843-2.272623 14.368843-2.272624l1.466209 7.331043c0.102635 0.058648-5.263688 1.041008-14.779382 2.257961z m0 0" fill="#D9D9D9" p-id="4794"></path><path d="M902.480647 97.810767H305.191299s-45.877663-5.073081-48.854066 48.692784 0 618.608018 0 692.050401c-1.05567 59.894616 82.298282 73.046506 111.886369 38.883849 40.247423-43.60504 14.354181-94.922337 5.776861-97.400229s559.813058 0 559.813059 0V166.971821c0.175945 0 8.22543-69.351661-31.347538-69.190378" fill="#FFFFFF" p-id="4795"></path><path d="M321.656821 905.251775a80.186942 80.186942 0 0 1-57.182131-22.081099 61.052921 61.052921 0 0 1-17.330584-44.66071c0-16.289576-0.175945-57.797938-0.35189-112.619473-0.70378-187.92394-1.920733-537.863918 0.35189-579.900115 2.272623-42.520046 29.939977-57.621993 54.982818-57.621993 2.595189 0 4.208018 0.175945 4.208018 0.175945h596.233677a34.749141 34.749141 0 0 1 26.787629 11.729668c18.738144 21.010767 14.530126 63.22291 14.016953 67.958763v621.232531h-9.2811c-2.448568 0-254.59244-1.216953-418.499885-1.216953-70.216724 0-105.757617 0.175945-123.454754 0.513173a70.949828 70.949828 0 0 1 4.398626 12.09622 86.5063 86.5063 0 0 1-21.186713 83.016724 71.404353 71.404353 0 0 1-53.751203 21.362657zM302.038951 106.915922c-12.770676 0-34.499885 5.190378-36.420618 40.100802-2.272623 41.552348-1.05567 391.096449-0.35189 578.859106 0.175945 54.821535 0.35189 96.109966 0.35189 112.795419a42.094845 42.094845 0 0 0 12.081557 31.523482 62.475143 62.475143 0 0 0 43.986255 16.641466 52.930126 52.930126 0 0 0 39.73425-15.380527 68.647881 68.647881 0 0 0 19.471248-53.062085 102.634593 102.634593 0 0 0-10.380756-37.476288l-6.641924-1.920733 1.05567-8.049485c0.513173-3.680183 1.05567 1.75945 11.905613 0.513173v-0.35189c0.175945 0 0.35189 0.175945 0.513173 0.175945 15.761741-1.75945 52.18236-1.75945 138.160824-1.75945 146.034364 0 362.153494 0.865063 409.218786 1.05567V167.03047c1.216953-11.553723 1.920733-41.860252-9.457045-54.469645a16.128293 16.128293 0 0 0-12.770675-5.424972H305.176637a19.06071 19.06071 0 0 0-3.152348-0.175945z m0 0" fill="#A9B1B6" p-id="4796"></path><path d="M333.767703 211.969759h525.313173v109.965636H333.767703z m0 159.347538h131.328293v31.15693h-131.328293z m0 84.39496h262.656586v31.15693H333.767703z m0 82.298281h159.171592v31.15693H333.767703z m0 89.306759h318.167239v31.15693h-318.167239z m32.256586 133.615578s54.64559 102.781214-47.109278 135.037801q331.201833 3.152348 662.432989-1.568843a81.359908 81.359908 0 0 0 27.491409-13.826346 78.442153 78.442153 0 0 0 25.380069-32.740435 71.961512 71.961512 0 0 0-8.797251-72.328065 57.871249 57.871249 0 0 0-21.538602-15.057961q-319.134937 0.513173-637.917984 0.513173" fill="#EDEEEE" p-id="4797"></path><path d="M1030.861861 770.74181a63.853379 63.853379 0 0 0-24.339061-16.978694l-1.466208-0.513173-651.568385 0.513173 5.776861 10.849942c0.175945 0.513173 23.811226 45.701718 8.797251 82.826117a75.187171 75.187171 0 0 1-50.085682 41.14181l-0.865063-0.175945h-7.888201l-0.175945 2.932417-9.457045 5.952806 8.92921 7.184422c86.990149 0.865063 185.959221 0.35189 273.682474 0.35189q199.624284 0 399.057961-2.800458l1.920733-0.35189a87.019473 87.019473 0 0 0 30.130584-15.057961 84.908133 84.908133 0 0 0 27.857961-35.907446 80.406873 80.406873 0 0 0-10.380756-80.025658z m-3.680184 74.41008a68.559908 68.559908 0 0 1-23.107445 29.588087 73.310424 73.310424 0 0 1-24.163116 12.257503q-314.149828 4.398625-628.446277 1.75945a77.386483 77.386483 0 0 0 30.130584-35.907445 118.000458 118.000458 0 0 0-4.398625-84.585567l624.956701-0.513173a51.595876 51.595876 0 0 1 17.521191 12.433447 64.923711 64.923711 0 0 1 7.536312 64.923712z m0 0" fill="#A9B1B6" p-id="4798"></path><path d="M1052.473774 634.09118a56.932875 56.932875 0 0 0-39.045132-14.178236 64.410538 64.410538 0 0 0 36.772509-12.990607 51.610538 51.610538 0 0 0 17.330584-41.14181 62.401833 62.401833 0 0 0 17.330584 41.684307 53.560596 53.560596 0 0 0 36.772508 12.433448 67.709507 67.709507 0 0 0-36.259335 12.990607 51.038717 51.038717 0 0 0-17.873081 41.14181 55.525315 55.525315 0 0 0-15.057962-39.924857" fill="#EDEEEE" p-id="4799"></path><path d="M64.146626 263.814891a72.416037 72.416037 0 0 0-49.851088-18.00504 81.902405 81.902405 0 0 0 46.918671-16.626804 66.228637 66.228637 0 0 0 22.066438-52.358305 79.497824 79.497824 0 0 0 22.066437 53.047423 69.20504 69.20504 0 0 0 46.918671 15.937686 86.418328 86.418328 0 0 0-46.229553 16.626804 65.158305 65.158305 0 0 0-22.755555 52.358305 69.703551 69.703551 0 0 0-19.060711-50.950745" fill="#A9B1B6" p-id="4800"></path><path d="M1032.357393 399.219244a26.948912 26.948912 0 0 0-19.793814-8.049485 30.130584 30.130584 0 0 0 18.738144-7.536311 30.922337 30.922337 0 0 0 8.797251-23.459336 38.531959 38.531959 0 0 0 8.797251 23.811226 25.556014 25.556014 0 0 0 18.738144 7.184421 31.743414 31.743414 0 0 0-18.386254 7.536312 31.024971 31.024971 0 0 0-9.090493 23.459336 35.189003 35.189003 0 0 0-7.697594-22.946163" fill="#EDEEEE" p-id="4801"></path><path d="M1112.177783 546.719817a34.001375 34.001375 0 0 0-23.649943-8.57732 38.957159 38.957159 0 0 0 22.242383-7.888201 31.288889 31.288889 0 0 0 10.498052-24.925545 37.652234 37.652234 0 0 0 10.498053 25.218786 32.549828 32.549828 0 0 0 22.242383 7.536312 41.053837 41.053837 0 0 0-21.890493 7.888201 30.922337 30.922337 0 0 0-10.849943 24.925545 32.828408 32.828408 0 0 0-9.090492-24.163116M859.330131 715.758992a19.940435 19.940435 0 0 0-13.665063-4.911798 22.828866 22.828866 0 0 0 12.990607-4.559909 17.799771 17.799771 0 0 0 5.952807-14.354181 21.655899 21.655899 0 0 0 6.128751 14.530126 18.562199 18.562199 0 0 0 12.990607 4.398626 23.459336 23.459336 0 0 0-12.609393 4.559908 17.961054 17.961054 0 0 0-6.290034 14.354181 20.204353 20.204353 0 0 0-5.424972-14.016953" fill="#A9B1B6" p-id="4802"></path><path d="M996.581907 478.02795a150.902176 150.902176 0 0 1-86.506301 136.577319c-19.471249 9.2811-142.354181 54.982818-165.476288 54.982818-24.925544 0 52.710195-46.742726 32.051317-57.431386a151.019473 151.019473 0 1 1 219.931272-134.128751" fill="#FFFFFF" p-id="4803"></path><path d="M744.423373 680.819244a14.823368 14.823368 0 0 1-15.233906-8.797251c-4.208018-10.498053 4.721191-18.899427 19.471248-32.740435a173.408477 173.408477 0 0 0 18.5622-19.251317 162.309278 162.309278 0 1 1 147.441924 4.559908c-16.626804 7.888202-143.233906 56.214433-170.19748 56.214433z m101.168385-342.5063a139.773654 139.773654 0 0 0-63.912028 264.064146 17.213288 17.213288 0 0 1 9.457045 12.770676c1.75945 12.770676-10.849943 25.028179-25.731959 39.221077a1447.572967 1447.572967 0 0 0 139.905613-49.733791 139.846964 139.846964 0 0 0-59.733333-266.33677z m0 0" fill="#A9B1B6" p-id="4804"></path><path d="M794.113178 478.02795a16.289576 16.289576 0 1 1-16.289576-16.289577 16.289576 16.289576 0 0 1 16.289576 16.289577" fill="#A9B1B6" p-id="4805"></path><path d="M858.391758 478.02795a16.289576 16.289576 0 1 1-16.289577-16.289577 16.289576 16.289576 0 0 1 16.289577 16.289577" fill="#A9B1B6" p-id="4806"></path><path d="M925.64674 478.042612a16.128293 16.128293 0 1 1-4.721191-11.553723 16.274914 16.274914 0 0 1 4.721191 11.553723" fill="#A9B1B6" p-id="4807"></path></svg>